%TF.GenerationSoftware,KiCad,Pcbnew,10.0.0*%
%TF.CreationDate,2026-04-14T20:51:31+12:00*%
%TF.ProjectId,weather_station_ext,77656174-6865-4725-9f73-746174696f6e,rev?*%
%TF.SameCoordinates,Original*%
%TF.FileFunction,Copper,L1,Top*%
%TF.FilePolarity,Positive*%
%FSLAX46Y46*%
G04 Gerber Fmt 4.6, Leading zero omitted, Abs format (unit mm)*
G04 Created by KiCad (PCBNEW 10.0.0) date 2026-04-14 20:51:31*
%MOMM*%
%LPD*%
G01*
G04 APERTURE LIST*
G04 Aperture macros list*
%AMRoundRect*
0 Rectangle with rounded corners*
0 $1 Rounding radius*
0 $2 $3 $4 $5 $6 $7 $8 $9 X,Y pos of 4 corners*
0 Add a 4 corners polygon primitive as box body*
4,1,4,$2,$3,$4,$5,$6,$7,$8,$9,$2,$3,0*
0 Add four circle primitives for the rounded corners*
1,1,$1+$1,$2,$3*
1,1,$1+$1,$4,$5*
1,1,$1+$1,$6,$7*
1,1,$1+$1,$8,$9*
0 Add four rect primitives between the rounded corners*
20,1,$1+$1,$2,$3,$4,$5,0*
20,1,$1+$1,$4,$5,$6,$7,0*
20,1,$1+$1,$6,$7,$8,$9,0*
20,1,$1+$1,$8,$9,$2,$3,0*%
%AMFreePoly0*
4,1,19,-0.850000,0.510000,-0.510000,0.850000,0.255000,0.850000,0.408997,0.829726,0.552500,0.770285,0.675729,0.675729,0.770285,0.552500,0.829726,0.408997,0.850000,0.255000,0.850000,-0.510000,0.510000,-0.850000,-0.255000,-0.850000,-0.408997,-0.829726,-0.552500,-0.770285,-0.675729,-0.675729,-0.770285,-0.552500,-0.829726,-0.408997,-0.850000,-0.255000,-0.850000,0.510000,-0.850000,0.510000,
$1*%
G04 Aperture macros list end*
%TA.AperFunction,ComponentPad*%
%ADD10C,1.700000*%
%TD*%
%TA.AperFunction,ComponentPad*%
%ADD11R,1.700000X1.700000*%
%TD*%
%TA.AperFunction,ComponentPad*%
%ADD12C,2.800000*%
%TD*%
%TA.AperFunction,ComponentPad*%
%ADD13RoundRect,0.250001X-1.149999X-1.149999X1.149999X-1.149999X1.149999X1.149999X-1.149999X1.149999X0*%
%TD*%
%TA.AperFunction,ComponentPad*%
%ADD14C,1.600000*%
%TD*%
%TA.AperFunction,ComponentPad*%
%ADD15FreePoly0,0.000000*%
%TD*%
%TA.AperFunction,ComponentPad*%
%ADD16RoundRect,0.250000X0.650000X0.650000X-0.650000X0.650000X-0.650000X-0.650000X0.650000X-0.650000X0*%
%TD*%
%TA.AperFunction,ComponentPad*%
%ADD17C,1.800000*%
%TD*%
%TA.AperFunction,ComponentPad*%
%ADD18C,1.400000*%
%TD*%
%TA.AperFunction,ComponentPad*%
%ADD19R,1.905000X2.000000*%
%TD*%
%TA.AperFunction,ComponentPad*%
%ADD20O,1.905000X2.000000*%
%TD*%
%TA.AperFunction,ComponentPad*%
%ADD21R,1.300000X1.300000*%
%TD*%
%TA.AperFunction,ComponentPad*%
%ADD22C,1.300000*%
%TD*%
%TA.AperFunction,ViaPad*%
%ADD23C,0.800000*%
%TD*%
%TA.AperFunction,Conductor*%
%ADD24C,0.500000*%
%TD*%
%TA.AperFunction,Conductor*%
%ADD25C,0.200000*%
%TD*%
G04 APERTURE END LIST*
D10*
%TO.P,J1,4,SDA_4*%
%TO.N,/SDA*%
X228743947Y-100683090D03*
%TO.P,J1,3,SCL_3*%
%TO.N,/SCL*%
X228743947Y-103223090D03*
D11*
%TO.P,J1,2,GND_2*%
%TO.N,/GND*%
X228743947Y-105763090D03*
D10*
%TO.P,J1,1,3V3_1*%
%TO.N,/3V3*%
X228743947Y-108303090D03*
%TD*%
D11*
%TO.P,J9,1,VLIPO_1*%
%TO.N,/VLIPO*%
X120500000Y-81500000D03*
D10*
%TO.P,J9,2,VLIPO_2*%
X123040000Y-81500000D03*
%TD*%
%TO.P,J8,1,IN+_1*%
%TO.N,/IN+*%
X108000000Y-85250000D03*
%TO.P,J8,2,IN-_2*%
%TO.N,/IN-*%
X108000000Y-99250000D03*
%TO.P,J8,3,OUT+_3*%
%TO.N,/OUT+*%
X131000000Y-85250000D03*
%TO.P,J8,4,OUT-_4*%
%TO.N,/GND*%
X131000000Y-99250000D03*
%TO.P,J8,5,B+_5*%
%TO.N,/VLIPO*%
X131000000Y-87790000D03*
%TO.P,J8,6,B-_6*%
%TO.N,/GND*%
X131000000Y-96710000D03*
%TD*%
D12*
%TO.P,J6,2,GND_2*%
%TO.N,/IN-*%
X116250000Y-107467500D03*
D13*
%TO.P,J6,1,VSOLAR_1*%
%TO.N,/IN+*%
X111250000Y-107467500D03*
%TD*%
D12*
%TO.P,J7,2,GND_2*%
%TO.N,/GND*%
X129500000Y-107500000D03*
D13*
%TO.P,J7,1,VLIPO_1*%
%TO.N,/VLIPO*%
X124500000Y-107500000D03*
%TD*%
D14*
%TO.P,C2,1*%
%TO.N,/3V3*%
X159790000Y-97750000D03*
%TO.P,C2,2*%
%TO.N,/GND*%
X157290000Y-97750000D03*
%TD*%
D15*
%TO.P,U1,1,EN_1*%
%TO.N,unconnected-(U1-EN-Pad1)*%
X164180000Y-89720000D03*
D10*
%TO.P,U1,2,GPIO3_2*%
%TO.N,unconnected-(U1-GPIO3-Pad2)*%
X164180000Y-92260000D03*
%TO.P,U1,3,GPIO5_3*%
%TO.N,unconnected-(U1-GPIO5-Pad3)*%
X164180000Y-94800000D03*
%TO.P,U1,4,GPIO7_4*%
%TO.N,/SCK*%
X164180000Y-97340000D03*
%TO.P,U1,5,GPIO9_5*%
%TO.N,/MISO*%
X164180000Y-99880000D03*
%TO.P,U1,6,GPIO11_6*%
%TO.N,/MOSI*%
X164180000Y-102420000D03*
%TO.P,U1,7,GPIO12_7*%
%TO.N,/CS*%
X164180000Y-104960000D03*
%TO.P,U1,8,3V3_8*%
%TO.N,/3V3*%
X164180000Y-107500000D03*
%TO.P,U1,9,VBUS_9*%
%TO.N,unconnected-(U1-VBUS-Pad9)*%
X187040000Y-107500000D03*
%TO.P,U1,10,GND_10*%
%TO.N,/GND*%
X187040000Y-104960000D03*
%TO.P,U1,11,XTAL_32K_N_11*%
%TO.N,unconnected-(U1-XTAL_32K_N-Pad11)*%
X187040000Y-102420000D03*
%TO.P,U1,12,DAC_2_12*%
%TO.N,unconnected-(U1-DAC_2-Pad12)*%
X187040000Y-99880000D03*
%TO.P,U1,13,GPIO33_13*%
%TO.N,/SDA*%
X187040000Y-97340000D03*
%TO.P,U1,14,GPIO35_14*%
%TO.N,/SCL*%
X187040000Y-94800000D03*
%TO.P,U1,15,GPIO37_15*%
%TO.N,unconnected-(U1-GPIO37-Pad15)*%
X187040000Y-92260000D03*
%TO.P,U1,16,GPIO39_16*%
%TO.N,unconnected-(U1-GPIO39-Pad16)*%
X187040000Y-89720000D03*
%TO.P,U1,17,GPIO1_17*%
%TO.N,/VBATT*%
X166720000Y-89720000D03*
%TO.P,U1,18,GPIO2_18*%
%TO.N,unconnected-(U1-GPIO2-Pad18)*%
X166720000Y-92260000D03*
%TO.P,U1,19,GPIO4_19*%
%TO.N,unconnected-(U1-GPIO4-Pad19)*%
X166720000Y-94800000D03*
%TO.P,U1,20,GPIO6_20*%
%TO.N,unconnected-(U1-GPIO6-Pad20)*%
X166720000Y-97340000D03*
%TO.P,U1,21,GPIO8_21*%
%TO.N,unconnected-(U1-GPIO8-Pad21)*%
X166720000Y-99880000D03*
%TO.P,U1,22,GPIO10_22*%
%TO.N,unconnected-(U1-GPIO10-Pad22)*%
X166720000Y-102420000D03*
%TO.P,U1,23,GPIO13_23*%
%TO.N,unconnected-(U1-GPIO13-Pad23)*%
X166720000Y-104960000D03*
%TO.P,U1,24,GPIO14_24*%
%TO.N,unconnected-(U1-GPIO14-Pad24)*%
X166720000Y-107500000D03*
%TO.P,U1,25,XTAL_32K_P_25*%
%TO.N,unconnected-(U1-XTAL_32K_P-Pad25)*%
X184500000Y-107500000D03*
%TO.P,U1,26,GND_26*%
%TO.N,/GND*%
X184500000Y-104960000D03*
%TO.P,U1,27,DAC_1_27*%
%TO.N,unconnected-(U1-DAC_1-Pad27)*%
X184500000Y-102420000D03*
%TO.P,U1,28,GPIO21_28*%
%TO.N,unconnected-(U1-GPIO21-Pad28)*%
X184500000Y-99880000D03*
%TO.P,U1,29,GPIO34_29*%
%TO.N,unconnected-(U1-GPIO34-Pad29)*%
X184500000Y-97340000D03*
%TO.P,U1,30,GPIO36_30*%
%TO.N,unconnected-(U1-GPIO36-Pad30)*%
X184500000Y-94800000D03*
%TO.P,U1,31,GPIO38_31*%
%TO.N,unconnected-(U1-GPIO38-Pad31)*%
X184500000Y-92260000D03*
%TO.P,U1,32,GPIO40_32*%
%TO.N,unconnected-(U1-GPIO40-Pad32)*%
X184500000Y-89720000D03*
%TD*%
D11*
%TO.P,J3,1,GND_1*%
%TO.N,/GND*%
X191958267Y-96670000D03*
D10*
%TO.P,J3,2,3V3_2*%
%TO.N,/3V3*%
X191958267Y-99210000D03*
%TO.P,J3,3,SDA_3*%
%TO.N,/SDA*%
X191958267Y-101750000D03*
%TO.P,J3,4,SCL_4*%
%TO.N,/SCL*%
X191958267Y-104290000D03*
%TO.P,J3,5,DS_5*%
%TO.N,unconnected-(J3-DS-Pad5)*%
X191958267Y-106830000D03*
%TD*%
D16*
%TO.P,D1,1,K_1*%
%TO.N,Net-(D1-K)*%
X154100000Y-84660000D03*
D17*
%TO.P,D1,2,A_2*%
%TO.N,/IN+*%
X146480000Y-84660000D03*
%TD*%
D18*
%TO.P,R3,1*%
%TO.N,/VBATT*%
X137010000Y-93250000D03*
%TO.P,R3,2*%
%TO.N,/GND*%
X142090000Y-93250000D03*
%TD*%
D19*
%TO.P,J4,1,GATE_1*%
%TO.N,/IN+*%
X147210000Y-92250000D03*
D20*
%TO.P,J4,2,DRAIN_2*%
%TO.N,/OUT+*%
X149750000Y-92250000D03*
%TO.P,J4,3,SOURCE_3*%
%TO.N,Net-(D1-K)*%
X152290000Y-92250000D03*
%TD*%
D21*
%TO.P,J5,1,GND_1*%
%TO.N,/GND*%
X157270000Y-91610000D03*
D22*
%TO.P,J5,2,IN_2*%
%TO.N,Net-(D1-K)*%
X158540000Y-90340000D03*
%TO.P,J5,3,OUT_3*%
%TO.N,/3V3*%
X159810000Y-91610000D03*
%TD*%
D18*
%TO.P,R1,1*%
%TO.N,/GND*%
X152530000Y-98000000D03*
%TO.P,R1,2*%
%TO.N,/IN+*%
X147450000Y-98000000D03*
%TD*%
%TO.P,R2,1*%
%TO.N,/VLIPO*%
X137010000Y-89250000D03*
%TO.P,R2,2*%
%TO.N,/VBATT*%
X142090000Y-89250000D03*
%TD*%
D14*
%TO.P,C1,1*%
%TO.N,/VBATT*%
X138000000Y-97500000D03*
%TO.P,C1,2*%
%TO.N,/GND*%
X140500000Y-97500000D03*
%TD*%
D10*
%TO.P,J2,1,3V3_1*%
%TO.N,/3V3*%
X159500000Y-116250000D03*
%TO.P,J2,2,CS_2*%
%TO.N,/CS*%
X159500000Y-113710000D03*
%TO.P,J2,3,MOSI_3*%
%TO.N,/MOSI*%
X159500000Y-111170000D03*
%TO.P,J2,4,CLK_4*%
%TO.N,/SCK*%
X159500000Y-108630000D03*
%TO.P,J2,5,MISO_5*%
%TO.N,/MISO*%
X159500000Y-106090000D03*
D11*
%TO.P,J2,6,GND_6*%
%TO.N,/GND*%
X159500000Y-103550000D03*
%TD*%
D23*
%TO.N,/3V3*%
X195000000Y-99750000D03*
X195250000Y-111570000D03*
%TO.N,/SCL*%
X189500000Y-101250000D03*
%TO.N,/IN-*%
X110500000Y-99500000D03*
%TO.N,/OUT+*%
X148250000Y-87250000D03*
%TO.N,/VBATT*%
X144000000Y-99500000D03*
%TD*%
%TO.N,Net-(D1-K)*%
D24*
X152290000Y-92250000D02*
X154200000Y-90340000D01*
X154200000Y-90340000D02*
X158540000Y-90340000D01*
%TO.N,/3V3*%
X195250000Y-111570000D02*
X225477037Y-111570000D01*
X225477037Y-111570000D02*
X228743947Y-108303090D01*
X194460000Y-99210000D02*
X195000000Y-99750000D01*
X191958267Y-99210000D02*
X194460000Y-99210000D01*
X164180000Y-111570000D02*
X195250000Y-111570000D01*
%TO.N,/SCL*%
D25*
X191958267Y-104290000D02*
X193025177Y-103223090D01*
X193025177Y-103223090D02*
X228743947Y-103223090D01*
%TO.N,/SDA*%
X191958267Y-101750000D02*
X193025177Y-100683090D01*
X193025177Y-100683090D02*
X228743947Y-100683090D01*
%TO.N,/SCL*%
X191958267Y-104290000D02*
X189500000Y-101831733D01*
X189500000Y-101831733D02*
X189500000Y-101250000D01*
%TO.N,/SDA*%
X191958267Y-101750000D02*
X187548267Y-97340000D01*
X187548267Y-97340000D02*
X187040000Y-97340000D01*
%TO.N,/VLIPO*%
D24*
X124500000Y-107500000D02*
X124500000Y-85500000D01*
X124500000Y-85500000D02*
X120500000Y-81500000D01*
X131000000Y-87790000D02*
X135550000Y-87790000D01*
X135550000Y-87790000D02*
X137010000Y-89250000D01*
%TO.N,/IN-*%
X110250000Y-99250000D02*
X110500000Y-99500000D01*
X108000000Y-99250000D02*
X110250000Y-99250000D01*
%TO.N,/IN+*%
X111250000Y-107467500D02*
X111250000Y-88500000D01*
X111250000Y-88500000D02*
X108000000Y-85250000D01*
X112707879Y-113292879D02*
X111250000Y-111835000D01*
X147500000Y-98050000D02*
X147500000Y-102000000D01*
X147500000Y-102000000D02*
X136207121Y-113292879D01*
X136207121Y-113292879D02*
X112707879Y-113292879D01*
X147450000Y-98000000D02*
X147500000Y-98050000D01*
X111250000Y-111835000D02*
X111250000Y-107500000D01*
%TO.N,/VLIPO*%
X130460000Y-87250000D02*
X130460000Y-87170000D01*
X131000000Y-87790000D02*
X130460000Y-87250000D01*
X124790000Y-81500000D02*
X123040000Y-81500000D01*
X130460000Y-87170000D02*
X124790000Y-81500000D01*
%TO.N,/SCK*%
D25*
X159500000Y-108630000D02*
X158380000Y-108630000D01*
X158380000Y-108630000D02*
X157500000Y-107750000D01*
X157500000Y-107750000D02*
X157500000Y-102750000D01*
X157500000Y-102750000D02*
X162910000Y-97340000D01*
X162910000Y-97340000D02*
X164180000Y-97340000D01*
%TO.N,/CS*%
X164180000Y-104960000D02*
X162250000Y-106890000D01*
X162250000Y-106890000D02*
X162250000Y-110960000D01*
X162250000Y-110960000D02*
X159500000Y-113710000D01*
%TO.N,/MISO*%
X159500000Y-106090000D02*
X161750000Y-103840000D01*
X161750000Y-103840000D02*
X161750000Y-102310000D01*
X161750000Y-102310000D02*
X164180000Y-99880000D01*
%TO.N,/MOSI*%
X159500000Y-111170000D02*
X161600000Y-109070000D01*
X161600000Y-109070000D02*
X161600000Y-105000000D01*
X161600000Y-105000000D02*
X164180000Y-102420000D01*
%TO.N,/OUT+*%
D24*
X149750000Y-92250000D02*
X149750000Y-88750000D01*
X149750000Y-88750000D02*
X148250000Y-87250000D01*
%TO.N,/VBATT*%
X144000000Y-91160000D02*
X144000000Y-99500000D01*
X142090000Y-89250000D02*
X144000000Y-91160000D01*
%TO.N,/3V3*%
X159500000Y-116250000D02*
X164180000Y-111570000D01*
X164180000Y-111570000D02*
X164180000Y-107500000D01*
X159790000Y-97750000D02*
X156500000Y-101040000D01*
X156500000Y-101040000D02*
X156500000Y-113250000D01*
X156500000Y-113250000D02*
X159500000Y-116250000D01*
X159810000Y-91610000D02*
X159810000Y-97730000D01*
X159810000Y-97730000D02*
X159790000Y-97750000D01*
%TO.N,Net-(D1-K)*%
X154100000Y-84660000D02*
X154100000Y-85900000D01*
X154100000Y-85900000D02*
X158540000Y-90340000D01*
%TO.N,/IN+*%
X147210000Y-92250000D02*
X147210000Y-97760000D01*
X147210000Y-97760000D02*
X147450000Y-98000000D01*
X146480000Y-84660000D02*
X146480000Y-91520000D01*
X146480000Y-91520000D02*
X147210000Y-92250000D01*
%TO.N,/VBATT*%
X137010000Y-93250000D02*
X137010000Y-96510000D01*
X137010000Y-96510000D02*
X138000000Y-97500000D01*
X142090000Y-89250000D02*
X141010000Y-89250000D01*
X141010000Y-89250000D02*
X137010000Y-93250000D01*
%TD*%
M02*
