M48
; DRILL file KiCad 10.0.0 date 2026-04-14T20:51:33
; FORMAT={-:-/ absolute / metric / decimal}
; #@! TF.CreationDate,2026-04-14T20:51:33+12:00
; #@! TF.GenerationSoftware,Kicad,Pcbnew,10.0.0
; #@! TF.FileFunction,Plated,1,2,PTH
FMAT,2
METRIC
; #@! TA.AperFunction,Plated,PTH,ViaDrill
T1C0.400
; #@! TA.AperFunction,Plated,PTH,ComponentDrill
T2C0.700
; #@! TA.AperFunction,Plated,PTH,ComponentDrill
T3C0.750
; #@! TA.AperFunction,Plated,PTH,ComponentDrill
T4C0.800
; #@! TA.AperFunction,Plated,PTH,ComponentDrill
T5C0.900
; #@! TA.AperFunction,Plated,PTH,ComponentDrill
T6C1.000
; #@! TA.AperFunction,Plated,PTH,ComponentDrill
T7C1.100
; #@! TA.AperFunction,Plated,PTH,ComponentDrill
T8C1.300
%
G90
G05
T1
X110.5Y-99.5
X144.0Y-99.5
X148.25Y-87.25
X189.5Y-101.25
X195.0Y-99.75
X195.25Y-111.57
T2
X137.01Y-89.25
X137.01Y-93.25
X142.09Y-89.25
X142.09Y-93.25
X147.45Y-98.0
X152.53Y-98.0
T3
X157.27Y-91.61
X158.54Y-90.34
X159.81Y-91.61
T4
X138.0Y-97.5
X140.5Y-97.5
X157.29Y-97.75
X159.79Y-97.75
T5
X146.48Y-84.66
X154.1Y-84.66
T6
X108.0Y-85.25
X108.0Y-99.25
X120.5Y-81.5
X123.04Y-81.5
X131.0Y-85.25
X131.0Y-87.79
X131.0Y-96.71
X131.0Y-99.25
X159.5Y-103.55
X159.5Y-106.09
X159.5Y-108.63
X159.5Y-111.17
X159.5Y-113.71
X159.5Y-116.25
X164.18Y-89.72
X164.18Y-92.26
X164.18Y-94.8
X164.18Y-97.34
X164.18Y-99.88
X164.18Y-102.42
X164.18Y-104.96
X164.18Y-107.5
X166.72Y-89.72
X166.72Y-92.26
X166.72Y-94.8
X166.72Y-97.34
X166.72Y-99.88
X166.72Y-102.42
X166.72Y-104.96
X166.72Y-107.5
X184.5Y-89.72
X184.5Y-92.26
X184.5Y-94.8
X184.5Y-97.34
X184.5Y-99.88
X184.5Y-102.42
X184.5Y-104.96
X184.5Y-107.5
X187.04Y-89.72
X187.04Y-92.26
X187.04Y-94.8
X187.04Y-97.34
X187.04Y-99.88
X187.04Y-102.42
X187.04Y-104.96
X187.04Y-107.5
X191.958Y-96.67
X191.958Y-99.21
X191.958Y-101.75
X191.958Y-104.29
X191.958Y-106.83
X228.744Y-100.683
X228.744Y-103.223
X228.744Y-105.763
X228.744Y-108.303
T7
X147.21Y-92.25
X149.75Y-92.25
X152.29Y-92.25
T8
X111.25Y-107.468
X116.25Y-107.468
X124.5Y-107.5
X129.5Y-107.5
M30
